<svg viewBox="0 0 72 72" xmlns="http://www.w3.org/2000/svg"><path d="m44.3878 14.7292h-16.7756c-.2652 0-.5196.1054-.7071.2929l-11.8622 11.8622c-.1875.1875-.2929.4419-.2929.7071v16.7756c0 .2652.1054.5196.2929.7071l11.8622 11.8622c.1875.1875.4419.2929.7071.2929h16.7756c.2652 0 .5196-.1054.7071-.2929l11.8622-11.8622c.1875-.1875.2929-.4419.2929-.7071v-16.7756c0-.2652-.1054-.5196-.2929-.7071l-11.8622-11.8622c-.1875-.1875-.4419-.2929-.7071-.2929z" style="fill:none;stroke:#000;stroke-linecap:round;stroke-linejoin:round;stroke-miterlimit:10;stroke-width:2"/><path d="m39.323 39.5c-1.3807 0-2.5-1.1193-2.5-2.5v-2c0-1.3807 1.1193-2.5 2.5-2.5 1.3807 0 2.5 1.1193 2.5 2.5v2c0 1.3807-1.1193 2.5-2.5 2.5z" style="fill:none;stroke:#000;stroke-linecap:round;stroke-linejoin:round;stroke-miterlimit:10;stroke-width:2"/><path d="m26.1449 33.8941c-.205-.7975-1.0911-1.3973-2.1532-1.3973-1.2139 0-2.1979.7834-2.1979 1.75 0 .9664.984 1.75 2.1979 1.75l-.0447.0064c1.2139 0 2.1979.7835 2.1979 1.75s-.984 1.75-2.1979 1.75c-1.0621 0-1.9482-.5998-2.1532-1.3973" style="fill:none;stroke:#000;stroke-linecap:round;stroke-linejoin:round;stroke-miterlimit:10;stroke-width:2"/><path d="m29.6462 32.5h4" style="fill:none;stroke:#000;stroke-linecap:round;stroke-linejoin:round;stroke-miterlimit:10;stroke-width:2"/><path d="m31.6462 32.5v7" style="fill:none;stroke:#000;stroke-linecap:round;stroke-linejoin:round;stroke-miterlimit:10;stroke-width:2"/><path d="m45.7936 39.5v-7h2.6692c.9629 0 1.7434.7806 1.7434 1.7435 0 .9629-.7805 1.7434-1.7434 1.7434h-2.6692" style="fill:none;stroke:#000;stroke-linecap:round;stroke-linejoin:round;stroke-miterlimit:10;stroke-width:2"/><path d="m45.9411 10.9792h-19.8822c-.2652 0-.5196.1054-.7071.2929l-14.0589 14.0589c-.1875.1875-.2929.4419-.2929.7071v19.8822c0 .2652.1054.5196.2929.7071l14.0589 14.0589c.1875.1875.4419.2929.7071.2929h19.8822c.2652 0 .5196-.1054.7071-.2929l14.0589-14.0589c.1875-.1875.2929-.4419.2929-.7071v-19.8822c0-.2652-.1054-.5196-.2929-.7071l-14.0589-14.0589c-.1875-.1875-.4419-.2929-.7071-.2929z" fill="#d22f27"/><g fill="none" stroke-linecap="round" stroke-linejoin="round" stroke-miterlimit="10" stroke-width="2"><path d="m44.3878 14.7292h-16.7756c-.2652 0-.5196.1054-.7071.2929l-11.8622 11.8622c-.1875.1875-.2929.4419-.2929.7071v16.7756c0 .2652.1054.5196.2929.7071l11.8622 11.8622c.1875.1875.4419.2929.7071.2929h16.7756c.2652 0 .5196-.1054.7071-.2929l11.8622-11.8622c.1875-.1875.2929-.4419.2929-.7071v-16.7756c0-.2652-.1054-.5196-.2929-.7071l-11.8622-11.8622c-.1875-.1875-.4419-.2929-.7071-.2929z" stroke="#fff"/><path d="m39.323 39.5c-1.3807 0-2.5-1.1193-2.5-2.5v-2c0-1.3807 1.1193-2.5 2.5-2.5 1.3807 0 2.5 1.1193 2.5 2.5v2c0 1.3807-1.1193 2.5-2.5 2.5z" stroke="#fff"/><path d="m26.1449 33.8941c-.205-.7975-1.0911-1.3973-2.1532-1.3973-1.2139 0-2.1979.7834-2.1979 1.75 0 .9664.984 1.75 2.1979 1.75l-.0447.0064c1.2139 0 2.1979.7835 2.1979 1.75s-.984 1.75-2.1979 1.75c-1.0621 0-1.9482-.5998-2.1532-1.3973" stroke="#fff"/><path d="m29.6462 32.5h4" stroke="#fff"/><path d="m31.6462 32.5v7" stroke="#fff"/><path d="m45.7936 39.5v-7h2.6692c.9629 0 1.7434.7806 1.7434 1.7435 0 .9629-.7805 1.7434-1.7434 1.7434h-2.6692" stroke="#fff"/><path d="m45.9411 10.9792h-19.8822c-.2652 0-.5196.1054-.7071.2929l-14.0589 14.0589c-.1875.1875-.2929.4419-.2929.7071v19.8822c0 .2652.1054.5196.2929.7071l14.0589 14.0589c.1875.1875.4419.2929.7071.2929h19.8822c.2652 0 .5196-.1054.7071-.2929l14.0589-14.0589c.1875-.1875.2929-.4419.2929-.7071v-19.8822c0-.2652-.1054-.5196-.2929-.7071l-14.0589-14.0589c-.1875-.1875-.4419-.2929-.7071-.2929z" stroke="#000"/></g></svg>